<svg width="20" height="16" viewBox="0 0 20 16" fill="none" xmlns="http://www.w3.org/2000/svg">
<g clip-path="url(#clip0)">
<path d="M9.9 15.4C3.5 15.4 0 10.2 0 8.00001C0 5.90001 3.5 0.600006 9.9 0.600006C16.3 0.600006 19.8 5.90001 19.8 8.00001C19.8 10.2 16.4 15.4 9.9 15.4ZM9.9 2.10001C4.2 2.10001 1.5 6.80001 1.5 8.00001C1.5 9.20001 4.2 13.9 9.9 13.9C15.6 13.9 18.3 9.20001 18.3 8.00001C18.3 6.80001 15.6 2.10001 9.9 2.10001Z" fill="black"/>
<path d="M9.89999 12.1C7.59999 12.1 5.79999 10.3 5.79999 8.00001C5.79999 5.70001 7.59999 3.90001 9.89999 3.90001C12.2 3.90001 14 5.80001 14 8.00001C14 10.3 12.2 12.1 9.89999 12.1ZM9.89999 5.40001C8.49999 5.40001 7.29999 6.60001 7.29999 8.00001C7.29999 9.40001 8.49999 10.6 9.89999 10.6C11.3 10.6 12.5 9.40001 12.5 8.00001C12.5 6.60001 11.3 5.40001 9.89999 5.40001Z" fill="black"/>
</g>
<defs>
<clipPath id="clip0">
<rect width="19.8" height="14.8" fill="white" transform="translate(0 0.600006)"/>
</clipPath>
</defs>
</svg>
