<svg width="21" height="16" viewBox="0 0 21 16" fill="none" xmlns="http://www.w3.org/2000/svg">
<g clip-path="url(#clip0)">
<path d="M6.59998 8.00001C6.59998 8.40001 6.69998 8.80001 6.79998 9.20001L8.09998 7.90001C8.09998 6.50001 9.19998 5.40001 10.6 5.40001L11.9 4.10001C11.6 4.00001 11.1 3.90001 10.7 3.90001C8.49997 3.90001 6.59998 5.70001 6.59998 8.00001Z" fill="black"/>
<path d="M3.39999 12.6L4.49999 11.5C4.39999 11.4 4.39999 11.4 4.29999 11.3C3.59999 10.7 3.09999 10 2.79999 9.30001C2.39999 8.70001 2.29999 8.20001 2.29999 8.00001C2.29999 7.80001 2.39999 7.30001 2.79999 6.60001C3.09999 6.00001 3.69999 5.20001 4.39999 4.60001C5.79999 3.20001 7.89999 2.10001 10.8 2.10001C11.8 2.10001 12.8 2.30001 13.6 2.50001L14.8 1.30001C13.6 0.800006 12.3 0.600006 10.8 0.600006C7.49999 0.600006 4.99999 2.00001 3.39999 3.50001C2.49999 4.30001 1.89999 5.10001 1.49999 5.90001C1.09999 6.60001 0.799988 7.40001 0.799988 8.00001C0.799988 8.60001 1.09999 9.30001 1.49999 10C1.89999 10.8 2.49999 11.6 3.29999 12.4C3.39999 12.5 3.39999 12.5 3.39999 12.6Z" fill="black"/>
<path d="M20 5.90001C19.6 5.10001 19 4.30001 18.2 3.50001C17.9 3.20001 17.6 3.00001 17.2 2.70001L18.6 1.30001C18.9 1.00001 18.9 0.500006 18.6 0.200006C18.3 -0.0999939 17.8 -0.0999939 17.5 0.200006L2.99996 14.7C2.69996 15 2.69996 15.5 2.99996 15.8C3.19996 15.9 3.39996 16 3.59996 16C3.79996 16 3.99996 15.9 4.09996 15.8L5.69996 14.2C7.09996 14.9 8.79996 15.4 10.7 15.4C14 15.4 16.5 14 18.1 12.5C18.9 11.7 19.5 10.9 19.9 10.1C20.3 9.40001 20.6 8.60001 20.6 8.00001C20.6 7.40001 20.4 6.60001 20 5.90001ZM13.3 8.00001C13.3 9.40001 12.1 10.6 10.7 10.6C10.3 10.6 9.89996 10.5 9.59996 10.3L13 6.90001C13.2 7.20001 13.3 7.60001 13.3 8.00001ZM18.7 9.30001C18.4 9.90001 17.8 10.7 17.1 11.3C15.7 12.7 13.6 13.8 10.7 13.8C9.19996 13.8 7.89996 13.5 6.79996 13L8.49996 11.3C9.09996 11.7 9.89996 12 10.7 12C13 12 14.8 10.2 14.8 7.90001C14.8 7.10001 14.6 6.30001 14.1 5.70001L16.1 3.70001C16.5 4.00001 16.8 4.20001 17.1 4.50001C17.8 5.20001 18.3 5.90001 18.7 6.50001C19.1 7.20001 19.2 7.60001 19.2 7.90001C19.1 8.20001 19 8.70001 18.7 9.30001Z" fill="black"/>
</g>
<defs>
<clipPath id="clip0">
<rect width="19.8" height="16" fill="white" transform="translate(0.799988)"/>
</clipPath>
</defs>
</svg>
